# xmcd CD database file
#
# Track frame offsets:
#       150
#       14001
#       28175
#       50738
#       60149
#       76463
#       86219
#       96587
#       122690
#       138085
#       153084
#       169103
#       195022
#       208005
#       228887
#       274018
#       298481
#       332971
#
# Disc length: 4693 seconds
#
# Revision: 2
# Processed by: cddbd v1.5.1PL2 Copyright (c) Steve Scherf et al.
# Submitted via: cddbsubmit 0.1 (based on crip v3.5 - http://bach.dynet.com/crip)
#
DISCID=fe125312
DTITLE=Ben Weaver - Blueslivinghollerin'
DYEAR=2005
DGENRE=blues
TTITLE0=El camino blues
TTITLE1=Lonesome as AM radion
TTITLE2=I cried all night
TTITLE3=Sometimes
TTITLE4=Precious time
TTITLE5=Bill Brown
TTITLE6=Ella Mae
TTITLE7=Living in the ground
TTITLE8=Rose Marie
TTITLE9=2 girls
TTITLE10=Ocean ain't blue
TTITLE11=Blood
TTITLE12=Semis sounded like thunder
TTITLE13=Sara
TTITLE14=Boxcars
TTITLE15=Liza
TTITLE16=Ballad of a thin man
TTITLE17=Vapor
EXTD=
EXTT0=
EXTT1=
EXTT2=
EXTT3=
EXTT4=
EXTT5=
EXTT6=
EXTT7=
EXTT8=
EXTT9=
EXTT10=
EXTT11=
EXTT12=
EXTT13=
EXTT14=
EXTT15=
EXTT16=
EXTT17=
PLAYORDER=
